<?xml version="1.0" standalone="no"?>
<!DOCTYPE svg PUBLIC "-//W3C//DTD SVG 20010904//EN"
 "http://www.w3.org/TR/2001/REC-SVG-20010904/DTD/svg10.dtd">
<svg version="1.0" xmlns="http://www.w3.org/2000/svg"
 width="700.000000pt" height="700.000000pt" viewBox="0 0 700.000000 700.000000"
 preserveAspectRatio="xMidYMid meet">
<metadata>
Created by potrace 1.14, written by Peter Selinger 2001-2017
</metadata>
<g transform="translate(0.000000,700.000000) scale(0.100000,-0.100000)"
fill="#000000" stroke="none">
<path d="M0 3500 l0 -3500 3500 0 3500 0 0 3500 0 3500 -3500 0 -3500 0 0
-3500z m3600 1398 c216 -590 395 -1078 399 -1085 3 -6 84 188 178 432 l172
443 -234 626 c-129 344 -235 631 -235 636 0 6 90 10 249 10 l249 0 90 -262
c204 -595 226 -657 229 -654 2 2 75 207 162 457 l158 454 251 3 252 2 -11 -27
c-6 -16 -114 -302 -240 -636 l-230 -608 171 -432 c94 -238 175 -436 179 -440
4 -4 82 196 173 445 91 249 268 735 394 1080 l229 628 293 0 c160 0 292 -3
292 -7 0 -5 -251 -635 -557 -1401 l-557 -1392 -235 2 -234 3 -243 578 c-133
319 -244 581 -246 583 -2 2 -114 -259 -247 -581 -203 -486 -247 -584 -264
-587 -18 -3 -91 -179 -480 -1150 l-459 -1148 -228 0 c-170 0 -230 3 -237 12
-6 7 -118 271 -249 585 -131 315 -241 573 -244 573 -3 0 -114 -262 -247 -583
l-242 -582 -227 -3 c-127 -1 -232 2 -237 7 -5 5 -256 629 -559 1387 -302 759
-552 1385 -555 1392 -4 10 55 12 288 10 l292 -3 396 -1078 c217 -592 398
-1074 402 -1070 3 5 82 203 174 441 l168 433 -233 622 c-128 342 -235 628
-238 635 -3 10 48 12 249 10 l253 -3 155 -452 c86 -249 158 -453 161 -453 3 0
53 138 112 308 59 169 130 373 158 455 l52 147 249 0 c137 0 249 -1 249 -2 0
-2 -108 -288 -239 -636 l-239 -632 176 -440 c97 -242 179 -437 182 -433 9 11
670 1827 670 1841 0 7 -230 589 -511 1294 -281 706 -514 1291 -516 1301 -5 16
13 17 284 17 l290 0 393 -1072z"/>
</g>
</svg>
