<svg width="64" height="64" viewBox="0 0 64 64" fill="none" xmlns="http://www.w3.org/2000/svg">
<rect width="64" height="64" fill="#373A39"/>
<path d="M13.412 30.512H18.02L20.936 38.972L23.888 30.512H28.46L24.068 42.14L27.308 50.276L34.544 30.44H39.944L29.72 56H25.436L20.936 45.272L16.472 56H12.188L2 30.44H7.328L14.6 50.276L17.768 42.14L13.412 30.512Z" fill="white"/>
<path d="M35.412 9.512H40.02L42.936 17.972L45.888 9.512H50.46L46.068 21.14L49.308 29.276L56.544 9.44H61.944L51.72 35H47.436L42.936 24.272L38.472 35H34.188L24 9.44H29.328L36.6 29.276L39.768 21.14L35.412 9.512Z" fill="white"/>
</svg>
